<svg width="391" height="100" viewBox="0 0 391 100" fill="none" xmlns="http://www.w3.org/2000/svg">
<path d="M72.3356 42.188C79.8493 42.188 81.5398 45.4332 81.5398 49.4808C81.5398 53.7713 79.495 56.8451 72.3668 56.8451C65.284 56.8451 63.2368 53.9499 63.2368 49.4808C63.2368 45.0832 65.4684 42.188 72.3356 42.188Z" fill="#0D0E0E"/>
<path d="M150.858 42.188C158.372 42.188 160.063 45.4332 160.063 49.4808C160.063 53.7713 158.015 56.8451 150.889 56.8451C143.809 56.8451 141.76 53.9499 141.76 49.4808C141.76 45.0832 143.991 42.188 150.858 42.188Z" fill="#0D0E0E"/>
<path fill-rule="evenodd" clip-rule="evenodd" d="M5.81067 91.6668V7.25488H385.514V91.6668H5.81067ZM186.777 86.9049H380.725V12.0168H186.777V86.9049ZM72.3715 64.0311C85.7108 64.0311 91.3185 58.3096 91.3185 49.3739C91.3185 40.293 85.0021 34.8954 72.3715 34.8954C59.9348 34.8954 53.3885 40.7573 53.3885 49.3739C53.3885 59.0977 60.2557 64.0311 72.3715 64.0311ZM25.9938 35.5382V63.6025H52.9168V56.1287H35.7344V35.5382H25.9938ZM121.45 63.6025L121.199 60.8834C117.94 63.1958 113.974 64.3087 109.981 64.0311C103.978 64.0311 98.9783 62.243 96.1744 58.6335C94.325 55.9982 93.3912 52.8349 93.5142 49.6239C93.4091 46.4804 94.3753 43.3937 96.2558 40.8644C99.0932 37.362 104.236 35.0382 111.894 35.0382C120.703 35.0382 125.88 37.7192 128.106 42.2239C128.584 43.2849 128.865 44.423 128.935 45.5835H119.616C119.381 44.8782 118.944 44.2568 118.359 43.7954C116.502 42.5715 114.286 42.0056 112.066 42.1882C110.764 42.0313 109.444 42.1508 108.192 42.5392C106.94 42.9275 105.785 43.5756 104.804 44.4406C103.69 45.9573 103.166 47.8244 103.331 49.6954C103.202 51.4804 103.683 53.2566 104.696 54.7358C105.686 55.6532 106.863 56.348 108.147 56.7737C109.431 57.1992 110.792 57.3456 112.138 57.2025C114.811 57.4187 117.465 56.5989 119.544 54.9144C119.991 54.3592 120.298 53.7063 120.442 53.0096H110.414V46.9787H129.179V63.6025H121.45ZM150.894 64.0311C164.231 64.0311 169.841 58.3096 169.841 49.3739C169.841 40.293 163.515 34.8954 150.894 34.8954C138.458 34.8954 131.911 40.7573 131.911 49.3739C131.911 59.0977 138.778 64.0311 150.894 64.0311Z" fill="#0D0E0E"/>
<path d="M203.184 63.4952V35.4309H210.128V63.4952H203.184Z" fill="#0D0E0E"/>
<path d="M245.785 51.7691C244.025 54.0572 240.996 55.1025 236.727 55.1287C235.827 55.1287 223.891 55.0929 223.891 55.0929V63.4953H217.095V35.431H236.73C238.303 35.2656 239.895 35.4315 241.399 35.9179C242.905 36.4046 244.289 37.2008 245.464 38.2548C247.016 40.2648 247.77 42.771 247.586 45.2977C247.744 47.5958 247.109 49.8789 245.785 51.7691ZM240.214 42.6191C239.495 41.5477 237.946 40.9525 235.324 40.9525H223.855V49.4953H235.25C238.054 49.4953 239.531 48.9239 240.214 47.8144C240.618 47.0327 240.793 46.1525 240.716 45.2763C240.776 44.3625 240.604 43.4484 240.214 42.6191Z" fill="#0D0E0E"/>
<path d="M267.61 63.9239C254.81 63.9239 250.893 59.162 250.893 54.4501H258.155C258.155 56.7739 261.354 58.5262 267.934 58.5262C274.475 58.5262 276.202 57.381 276.202 55.5215C276.202 53.4477 274.909 52.8048 268.832 52.1262C267.634 52.0191 264.376 51.6262 263.152 51.4477C254.532 50.481 251.213 47.9429 251.213 43.4024C251.213 38.612 256.069 35.0024 266.602 35.0024C278.036 35.0024 282.422 39.4715 282.422 44.1191H275.239C275.239 41.7596 272.543 40.4001 266.179 40.4001C259.635 40.4001 258.234 41.2929 258.234 43.0453C258.234 44.8691 259.671 45.4405 266.614 46.262C268.197 46.4786 271.719 46.8715 272.689 46.9762C280.026 47.7262 283.332 50.3715 283.332 55.0548C283.32 60.6334 278.287 63.9239 267.61 63.9239Z" fill="#0D0E0E"/>
<path d="M303.781 63.8881C294.399 63.8881 288.286 60.2047 288.286 52.4595V35.4309H295.151V52.5547C295.151 56.0952 298.065 58.4523 304.068 58.4523C309.496 58.4523 312.733 56.2381 312.733 52.5547V35.4309H319.529V53.0952C319.529 60.1357 313.847 63.8881 303.781 63.8881Z" fill="#0D0E0E"/>
<path d="M356.738 63.4952V44.7619L347.929 63.4952H341.244L332.686 44.7619V63.4952H326.221V35.4309H334.98L344.687 56.8095L354.609 35.4309H363.229V63.4952H356.738Z" fill="#0D0E0E"/>
</svg>
