<svg width="120" height="120" viewBox="0 0 120 120" fill="none" xmlns="http://www.w3.org/2000/svg">
<circle cx="60" cy="60" r="60" fill="#005DF3" fill-opacity="0.1"/>
<path d="M60 42.25C60 41.0312 60.9375 40 62.25 40C74.25 40 84 49.75 84 61.75C84 63.0625 82.9688 64 81.75 64C80.4375 64 79.5 63.0625 79.5 61.75C79.5 52.2812 71.7188 44.5 62.25 44.5C60.9375 44.5 60 43.5625 60 42.25ZM60 61C60 59.4062 61.3125 58 63 58C64.5938 58 66 59.4062 66 61C66 62.6875 64.5938 64 63 64C61.3125 64 60 62.6875 60 61ZM62.25 49C69.2812 49 75 54.7188 75 61.75C75 63.0625 73.9688 64 72.75 64C71.4375 64 70.5 63.0625 70.5 61.75C70.5 57.25 66.75 53.5 62.25 53.5C60.9375 53.5 60 52.5625 60 51.25C60 50.0312 60.9375 49 62.25 49Z" fill="#005DF3"/>
<path opacity="0.4" d="M51.375 42.3438L55.125 51.3438C55.7812 52.8438 55.4062 54.625 54.0938 55.6562L49.5 59.5C52.5938 66.0625 57.9375 71.4062 64.5 74.5L68.3438 69.9062C69.375 68.5938 71.1562 68.2188 72.6562 68.875L81.6562 72.625C83.4375 73.2812 84.2812 75.25 83.8125 77.0312L81.5625 85.2812C81.0938 86.875 79.6875 88 78 88C54.75 88 36 69.25 36 46C36 44.3125 37.125 42.9062 38.7188 42.4375L46.9688 40.1875C48.75 39.7188 50.7188 40.5625 51.375 42.3438Z" fill="#005DF3"/>
<path d="M60.75 36C73.5938 36 84 46.4062 84 59.25C84 59.7188 83.625 60 83.25 60C82.7812 60 82.5 59.7188 82.5 59.25C82.5 47.25 72.75 37.5 60.75 37.5C60.2812 37.5 60 37.2188 60 36.75C60 36.375 60.2812 36 60.75 36ZM61.5 57C61.5 57.8438 62.1562 58.5 63 58.5C63.75 58.5 64.5 57.8438 64.5 57C64.5 56.25 63.75 55.5 63 55.5C62.1562 55.5 61.5 56.25 61.5 57ZM66 57C66 58.6875 64.5938 60 63 60C61.3125 60 60 58.6875 60 57C60 55.4062 61.3125 54 63 54C64.5938 54 66 55.4062 66 57ZM60 45.75C60 45.375 60.2812 45 60.75 45C68.5312 45 75 51.4688 75 59.25C75 59.7188 74.625 60 74.25 60C73.7812 60 73.5 59.7188 73.5 59.25C73.5 52.2188 67.7812 46.5 60.75 46.5C60.2812 46.5 60 46.2188 60 45.75ZM63.8438 71.9062C57 68.625 51.375 63 48.0938 56.1562C47.8125 55.5 48 54.75 48.4688 54.2812L53.1562 50.5312C53.9062 49.875 54.1875 48.8438 53.8125 47.9062L50.0625 38.9062C49.5938 37.875 48.4688 37.3125 47.3438 37.5938L39.0938 39.8438C38.1562 40.125 37.5 41.0625 37.5 42C37.5 64.4062 55.5938 82.5 78 82.5C78.9375 82.5 79.875 81.8438 80.1562 80.9062L82.4062 72.6562C82.6875 71.5312 82.125 70.4062 81.0938 69.9375L72.0938 66.1875C71.1562 65.8125 70.125 66.0938 69.4688 66.8438L65.7188 71.5312C65.25 72 64.5 72.1875 63.8438 71.9062ZM68.3438 65.9062C69.375 64.5938 71.1562 64.2188 72.6562 64.875L81.6562 68.625C83.4375 69.2812 84.2812 71.25 83.8125 73.0312L81.5625 81.2812C81.0938 82.875 79.6875 84 78 84C54.75 84 36 65.25 36 42C36 40.3125 37.125 38.9062 38.7188 38.4375L46.9688 36.1875C48.75 35.7188 50.7188 36.6562 51.375 38.3438L55.125 47.3438C55.7812 48.8438 55.4062 50.625 54.0938 51.6562L49.5 55.5C52.5938 62.0625 57.9375 67.4062 64.5 70.5L68.3438 65.9062Z" fill="black"/>
</svg>
