<?xml version="1.0" encoding="UTF-8" standalone="no"?>
<svg
   version="1.0"
   width="500.000000pt"
   height="500.000000pt"
   viewBox="0 0 500.000000 500.000000"
   preserveAspectRatio="xMidYMid meet"
   id="svg266"
   sodipodi:docname="Black_and_White_Minimal_Monogram_Typography_Personal_Logo-removebg-preview.svg"
   inkscape:version="1.2 (dc2aeda, 2022-05-15)"
   xmlns:inkscape="http://www.inkscape.org/namespaces/inkscape"
   xmlns:sodipodi="http://sodipodi.sourceforge.net/DTD/sodipodi-0.dtd"
   xmlns="http://www.w3.org/2000/svg"
   xmlns:svg="http://www.w3.org/2000/svg">
  <defs
     id="defs270" />
  <sodipodi:namedview
     id="namedview268"
     pagecolor="#ffffff"
     bordercolor="#000000"
     borderopacity="0.25"
     inkscape:showpageshadow="2"
     inkscape:pageopacity="0.0"
     inkscape:pagecheckerboard="0"
     inkscape:deskcolor="#d1d1d1"
     inkscape:document-units="pt"
     showgrid="false"
     inkscape:zoom="0.54138122"
     inkscape:cx="369.42545"
     inkscape:cy="345.41279"
     inkscape:window-width="1239"
     inkscape:window-height="456"
     inkscape:window-x="0"
     inkscape:window-y="23"
     inkscape:window-maximized="0"
     inkscape:current-layer="svg266" />
  <g
     transform="matrix(0.15921959,0,0,-0.16065975,-147.03816,647.3341)"
     fill="#000000"
     stroke="none"
     id="g264"
     style="stroke:#000000;stroke-opacity:1;fill:#0044aa">
    <path
       d="m 2270,3945 c -182,-31 -351,-90 -495,-172 -496,-283 -788,-833 -736,-1388 20,-210 55,-341 137,-515 205,-434 617,-743 1094,-821 105,-17 348,-17 455,0 186,30 390,108 549,209 342,218 568,542 658,943 30,136 33,422 4,564 -57,286 -181,530 -372,734 -228,242 -512,393 -839,446 -110,18 -351,18 -455,0 z m 30,-850 c 0,-3 -21,-48 -47,-100 -45,-90 -50,-96 -87,-106 -22,-6 -54,-22 -72,-35 -39,-30 -80,-120 -89,-196 l -6,-58 h 200 201 v -350 -350 h -350 -350 v 388 c 0,307 3,398 15,442 42,160 167,311 294,356 34,12 291,20 291,9 z m 900,0 c 0,-3 -21,-48 -47,-100 -45,-90 -50,-96 -87,-106 -22,-6 -54,-22 -72,-35 -39,-30 -80,-120 -89,-196 l -6,-58 h 200 201 v -350 -350 h -350 -350 v 388 c 0,307 3,398 15,442 42,160 167,311 294,356 34,12 291,20 291,9 z"
       id="path262"
       style="stroke:#000000;stroke-opacity:1;fill:#0044aa" />
  </g>
</svg>
