<svg width="178" height="100" viewBox="0 0 178 100" fill="none" xmlns="http://www.w3.org/2000/svg">
<path d="M42.5998 40.7297V36.9231H30.5977V63.0769H42.5998V59.2703C40.1411 59.2703 37.7832 58.2936 36.0447 56.5551C34.3062 54.8165 33.3295 52.4587 33.3295 50C33.3295 47.5414 34.3062 45.1834 36.0447 43.4449C37.7832 41.7064 40.1411 40.7297 42.5998 40.7297Z" fill="#0D0E10"/>
<path d="M42.6016 40.7297V59.2703C45.0602 59.2703 47.4182 58.2936 49.1567 56.5551C50.8952 54.8165 51.8718 52.4587 51.8718 50C51.8718 47.5414 50.8952 45.1834 49.1567 43.4449C47.4182 41.7064 45.0602 40.7297 42.6016 40.7297Z" fill="#0D0E10"/>
<path d="M58.6055 43.0586H61.2925V56.0012H58.6055V43.0586Z" fill="#0D0E10"/>
<path d="M62.7973 51.5675C62.7973 50.6363 63.0738 49.7261 63.5917 48.9522C64.1096 48.1784 64.8455 47.5757 65.7064 47.2205C66.5672 46.8655 67.514 46.774 68.4269 46.9576C69.3398 47.1412 70.1776 47.5917 70.8341 48.252C71.4907 48.9124 71.9364 49.7527 72.1149 50.6667C72.2932 51.5806 72.1963 52.5269 71.8362 53.3857C71.4762 54.2444 70.8693 54.9769 70.0925 55.4903C69.3157 56.0038 68.4039 56.2751 67.4727 56.2698C66.8552 56.2746 66.2428 56.1561 65.6716 55.9211C65.1004 55.6861 64.5818 55.3395 64.1464 54.9016C63.7109 54.4636 63.3673 53.9431 63.1356 53.3705C62.904 52.798 62.789 52.185 62.7973 51.5675ZM69.5328 51.5675C69.5222 51.166 69.3935 50.7766 69.1628 50.4479C68.9321 50.1192 68.6096 49.8658 68.2356 49.7195C67.8616 49.5731 67.4529 49.5403 67.0604 49.6251C66.6678 49.7098 66.309 49.9084 66.0287 50.1961C65.7485 50.4837 65.5592 50.8475 65.4847 51.2421C65.4102 51.6368 65.4536 52.0446 65.6096 52.4146C65.7657 52.7846 66.0273 53.1005 66.3619 53.3225C66.6965 53.5447 67.089 53.6632 67.4907 53.6633C67.7641 53.6687 68.0357 53.6176 68.2884 53.5131C68.5412 53.4088 68.7697 53.2534 68.9597 53.0567C69.1496 52.86 69.297 52.6261 69.3925 52.37C69.4881 52.1137 69.5298 51.8405 69.5149 51.5675H69.5328Z" fill="#0D0E10"/>
<path d="M82.7804 47.1339V55.5623C82.7804 58.5359 80.4517 59.7988 78.096 59.7988C77.2651 59.867 76.4317 59.7019 75.6896 59.3221C74.9474 58.9424 74.326 58.363 73.8953 57.6492L76.1614 56.3415C76.345 56.7118 76.637 57.0172 76.9987 57.2172C77.3604 57.4172 77.7744 57.5023 78.1856 57.4611C78.4476 57.4933 78.7134 57.4674 78.9641 57.385C79.2149 57.3025 79.4443 57.1657 79.636 56.9842C79.8277 56.8028 79.9769 56.5813 80.0731 56.3354C80.1692 56.0896 80.2097 55.8256 80.1919 55.5623V54.7472C79.8792 55.1263 79.4824 55.4273 79.0332 55.6263C78.5838 55.8253 78.0943 55.9169 77.6034 55.8937C76.4156 55.8937 75.2766 55.4218 74.4367 54.5819C73.5968 53.7422 73.125 52.603 73.125 51.4153C73.125 50.2275 73.5968 49.0885 74.4367 48.2486C75.2766 47.4087 76.4156 46.9369 77.6034 46.9369C78.0943 46.9137 78.5838 47.0052 79.0332 47.2042C79.4824 47.4033 79.8792 47.7042 80.1919 48.0833V47.1877L82.7804 47.1339ZM80.1919 51.3884C80.2097 50.9599 80.099 50.5358 79.8739 50.1707C79.6489 49.8056 79.3198 49.5162 78.9288 49.3397C78.5379 49.1632 78.1033 49.1076 77.6805 49.1802C77.2578 49.2527 76.8664 49.4501 76.5568 49.7468C76.2472 50.0435 76.0334 50.4262 75.9429 50.8454C75.8524 51.2647 75.8894 51.7013 76.0491 52.0994C76.2089 52.4974 76.4841 52.8386 76.8392 53.079C77.1944 53.3194 77.6134 53.4481 78.0423 53.4485C78.3222 53.4686 78.6032 53.4298 78.867 53.3347C79.131 53.2395 79.3721 53.09 79.5746 52.8958C79.7772 52.7017 79.9368 52.4672 80.0431 52.2076C80.1495 51.9479 80.2001 51.6688 80.1919 51.3884Z" fill="#0D0E10"/>
<path d="M84.2933 51.5676C84.2933 50.6371 84.5693 49.7277 85.0864 48.9542C85.6035 48.1806 86.3384 47.5779 87.1982 47.2224C88.0579 46.8667 89.0038 46.7741 89.9163 46.9563C90.8287 47.1384 91.6665 47.5872 92.3239 48.2457C92.9811 48.9043 93.4282 49.743 93.6086 50.6557C93.7891 51.5685 93.6947 52.5142 93.3374 53.3733C92.9801 54.2324 92.376 54.9661 91.6016 55.4818C90.8271 55.9974 89.9171 56.2717 88.9866 56.2699C88.3679 56.2759 87.7541 56.1583 87.1814 55.924C86.6087 55.6897 86.0885 55.3434 85.6514 54.9054C85.2142 54.4674 84.8689 53.9466 84.6357 53.3734C84.4026 52.8003 84.2861 52.1863 84.2933 51.5676ZM91.0288 51.5676C91.0182 51.1658 90.8893 50.776 90.6582 50.4471C90.4271 50.1183 90.104 49.8649 89.7295 49.7188C89.355 49.5727 88.9458 49.5404 88.553 49.6259C88.1603 49.7114 87.8015 49.9109 87.5216 50.1994C87.2417 50.4879 87.0531 50.8526 86.9797 51.2478C86.9062 51.643 86.9509 52.0511 87.1082 52.4209C87.2656 52.7908 87.5287 53.106 87.8644 53.327C88.2001 53.548 88.5936 53.6651 88.9956 53.6635C89.2691 53.6688 89.5406 53.6177 89.7934 53.5133C90.0461 53.4089 90.2746 53.2535 90.4646 53.0568C90.6546 52.8601 90.8019 52.6263 90.8975 52.3701C90.9931 52.1138 91.0347 51.8407 91.0198 51.5676H91.0288Z" fill="#0D0E10"/>
<path d="M94.9258 44.7606C94.9258 44.4453 95.0193 44.137 95.1945 43.8748C95.3697 43.6126 95.6187 43.4083 95.91 43.2876C96.2013 43.167 96.5219 43.1354 96.8312 43.1969C97.1403 43.2584 97.4245 43.4103 97.6475 43.6332C97.8704 43.8562 98.0222 44.1403 98.0838 44.4495C98.1453 44.7588 98.1137 45.0793 97.993 45.3707C97.8724 45.662 97.668 45.911 97.4058 46.0862C97.1437 46.2614 96.8355 46.3549 96.5201 46.3549C96.0987 46.3502 95.6959 46.1808 95.3979 45.8828C95.0999 45.5848 94.9304 45.182 94.9258 44.7606ZM95.1855 47.1341H97.8726V56.0013H95.1855V47.1341Z" fill="#0D0E10"/>
<path d="M109.373 51.5676C109.403 52.1574 109.316 52.7472 109.118 53.3033C108.919 53.8593 108.612 54.3706 108.215 54.8076C107.818 55.2447 107.338 55.5988 106.804 55.8498C106.269 56.1008 105.691 56.2435 105.101 56.27C104.6 56.3033 104.098 56.2231 103.633 56.0355C103.168 55.8477 102.751 55.5574 102.414 55.1862V59.5661H99.7266V47.134H102.414V47.967C102.751 47.5968 103.169 47.3079 103.634 47.1218C104.099 46.9355 104.601 46.8571 105.101 46.8922C105.688 46.9186 106.265 47.0606 106.797 47.3099C107.33 47.5591 107.808 47.9109 108.205 48.3451C108.602 48.7792 108.909 49.2872 109.11 49.8402C109.31 50.3931 109.4 50.9801 109.373 51.5676ZM106.686 51.5676C106.675 51.1516 106.542 50.748 106.303 50.4074C106.064 50.0668 105.73 49.8041 105.342 49.6527C104.955 49.5011 104.531 49.4675 104.125 49.5557C103.718 49.6439 103.346 49.8503 103.056 50.1488C102.766 50.4473 102.571 50.8248 102.495 51.2339C102.419 51.643 102.465 52.0655 102.628 52.4485C102.79 52.8314 103.063 53.1577 103.41 53.3867C103.758 53.6156 104.165 53.7368 104.581 53.7352C104.866 53.7473 105.151 53.699 105.416 53.5935C105.681 53.488 105.92 53.3276 106.119 53.123C106.318 52.9183 106.471 52.6739 106.569 52.4059C106.667 52.1378 106.706 51.8522 106.686 51.5676Z" fill="#0D0E10"/>
<path d="M117.549 53.341C117.549 55.3831 115.757 56.2519 113.859 56.2519C113.084 56.3216 112.307 56.1574 111.626 55.7806C110.946 55.4038 110.395 54.8317 110.043 54.1381L112.354 52.8304C112.445 53.15 112.644 53.4285 112.916 53.6193C113.188 53.81 113.518 53.9015 113.85 53.8784C114.486 53.8784 114.808 53.6813 114.808 53.3231C114.808 52.3468 110.446 52.8663 110.446 49.7941C110.446 47.8594 112.076 46.8921 113.921 46.8921C114.623 46.8606 115.319 47.0198 115.938 47.3526C116.556 47.6853 117.072 48.1793 117.432 48.782L115.121 50.0001C115.019 49.769 114.853 49.5725 114.641 49.4342C114.43 49.2959 114.183 49.2218 113.93 49.2208C113.464 49.2208 113.187 49.4 113.187 49.7135C113.187 50.7345 117.549 50.0628 117.549 53.341Z" fill="#0D0E10"/>
<path d="M127.286 47.134V56.0013H124.599V55.1683C124.293 55.537 123.906 55.8287 123.468 56.0202C123.029 56.2116 122.551 56.2971 122.073 56.27C120.282 56.27 118.75 54.9891 118.75 52.5977V47.134H121.437V52.1946C121.416 52.4062 121.441 52.6198 121.51 52.8208C121.58 53.0217 121.692 53.2051 121.839 53.3585C121.987 53.5117 122.166 53.6312 122.364 53.7087C122.562 53.7861 122.774 53.8196 122.987 53.8068C123.954 53.8068 124.635 53.2336 124.635 52.0155V47.134H127.286Z" fill="#0D0E10"/>
<path d="M142.514 50.5553V56.001H139.827V50.7881C139.827 49.8925 139.406 49.3371 138.555 49.3371C137.704 49.3371 137.167 49.9552 137.167 51.0031V56.001H134.48V50.7881C134.48 49.8925 134.059 49.3371 133.208 49.3371C132.357 49.3371 131.82 49.9552 131.82 51.0031V56.001H129.133V47.1338H131.82V47.9488C132.098 47.5888 132.461 47.3036 132.878 47.1191C133.293 46.9346 133.749 46.8565 134.202 46.8919C134.656 46.8682 135.11 46.9631 135.516 47.1673C135.923 47.3714 136.27 47.6778 136.522 48.0563C136.818 47.6608 137.208 47.3466 137.658 47.143C138.107 46.9393 138.601 46.853 139.093 46.8919C141.189 46.8919 142.514 48.3429 142.514 50.5553Z" fill="#0D0E10"/>
<path d="M144.771 47.0801C145.86 47.0801 146.742 46.1979 146.742 45.1097C146.742 44.0214 145.86 43.1392 144.771 43.1392C143.683 43.1392 142.801 44.0214 142.801 45.1097C142.801 46.1979 143.683 47.0801 144.771 47.0801Z" fill="#0D0E10"/>
</svg>
